<svg xmlns="http://www.w3.org/2000/svg" version="1.1" xmlns:xlink="http://www.w3.org/1999/xlink" xmlns:svgjs="http://svgjs.com/svgjs" width="512" height="512" x="0" y="0" viewBox="0 0 48 48" style="enable-background:new 0 0 512 512" xml:space="preserve" class=""><g><path fill="#665050" d="M35 12.43V42a3 3 0 0 1-3 3H6a3 3 0 0 1-3-3V5a2 2 0 0 1 2-2h20.1a2 2 0 0 1 1.37.54l7.9 7.46a2 2 0 0 1 .63 1.43z" data-original="#468ff1" class=""></path><path fill="#ffffff" d="M35 12.43V39a3 3 0 0 1-3 3H6a3 3 0 0 1-3-3V5a2 2 0 0 1 2-2h20.1a2 2 0 0 1 1.37.54l7.9 7.46a2 2 0 0 1 .63 1.43z" data-original="#8bcaff" class=""></path><path fill="#665050" d="M35 12.43V13h-9a2 2 0 0 1-2-2V3h1.1a2 2 0 0 1 1.37.54l7.9 7.46a2 2 0 0 1 .63 1.43z" data-original="#468ff1" class=""></path><g fill="#f9f6f6"><path d="M28 35H10a1 1 0 0 1 0-2h18a1 1 0 0 1 0 2zM28 29H10a1 1 0 0 1 0-2h18a1 1 0 0 1 0 2zM28 23H10a1 1 0 0 1 0-2h18a1 1 0 0 1 0 2zM21 17H10a1 1 0 0 1 0-2h11a1 1 0 0 1 0 2zM16 11h-6a1 1 0 0 1 0-2h6a1 1 0 0 1 0 2z" fill="#b8b8b8" data-original="#f9f6f6" class=""></path></g><circle cx="37" cy="37" r="8" fill="#dc0d0d" data-original="#ffca3a" class=""></circle><path fill="#b8b8b8" d="M37 40.5a1 1 0 0 1-1-1v-5a1 1 0 0 1 2 0v5a1 1 0 0 1-1 1z" data-original="#f9f6f6" class=""></path><path fill="#b8b8b8" d="M39.5 38h-5a1 1 0 0 1 0-2h5a1 1 0 0 1 0 2z" data-original="#f9f6f6" class=""></path></g></svg>