<svg xmlns="http://www.w3.org/2000/svg" version="1.1" xmlns:xlink="http://www.w3.org/1999/xlink" xmlns:svgjs="http://svgjs.com/svgjs" width="512" height="512" x="0" y="0" viewBox="0 0 512 512" style="enable-background:new 0 0 512 512" xml:space="preserve" class=""><g><path d="M128 0c-17.6 0-32 14.4-32 32v448c0 17.6 14.4 32 32 32h320c17.6 0 32-14.4 32-32V128L352 0H128z" style="" fill="#f4f4f4" data-original="#e2e5e7" class=""></path><path d="M384 128h96L352 0v96c0 17.6 14.4 32 32 32z" style="" fill="#3c3c3c" data-original="#b0b7bd" class=""></path><path d="m480 224-96-96h96z" style="" fill="#cad1d8" data-original="#cad1d8" class=""></path><path d="M416 416c0 8.8-7.2 16-16 16H48c-8.8 0-16-7.2-16-16V256c0-8.8 7.2-16 16-16h352c8.8 0 16 7.2 16 16v160z" style="" fill="#da1111" data-original="#f7b84e" class=""></path><path d="M164.224 384c-4.096-2.32-6.656-6.912-4.096-12.288l36.704-71.76c3.456-6.784 12.672-7.04 15.872 0l36.064 71.76c5.248 9.968-10.24 17.904-14.832 7.936l-5.648-11.264h-47.2l-5.504 11.264c-2.032 4.352-6.768 5.264-11.36 4.352zm54.992-32.496-14.448-31.6-15.728 31.6h30.176zM264.048 303.152c0-10.496 16.896-10.88 16.896 0v73.024c0 10.624-16.896 10.88-16.896 0v-73.024z" style="" fill="#ffffff" data-original="#ffffff" class=""></path><path d="M400 432H96v16h304c8.8 0 16-7.2 16-16v-16c0 8.8-7.2 16-16 16z" style="" fill="#cad1d8" data-original="#cad1d8" class=""></path></g></svg>