<svg xmlns="http://www.w3.org/2000/svg" version="1.1" xmlns:xlink="http://www.w3.org/1999/xlink" xmlns:svgjs="http://svgjs.com/svgjs" width="512" height="512" x="0" y="0" viewBox="0 0 511.999 511.999" style="enable-background:new 0 0 512 512" xml:space="preserve" class=""><g><path d="m362.585 280.61-97.245 25.286a37.16 37.16 0 0 1-18.341.092l-102.588-25.581c-16.269-4.057-27.686-18.67-27.686-35.437V132.891c0-69.248 56.137-125.385 125.385-125.385h22.422c69.248 0 125.385 56.137 125.385 125.385v112.372c-.002 16.631-11.237 31.162-27.332 35.347z" style="" fill="#fd9727" data-original="#fd9727" class=""></path><path d="M264.531 7.507h-22.422c-5.632 0-11.175.378-16.611 1.097 61.395 8.127 108.774 60.672 108.774 124.287v112.372c0 16.631-11.236 31.162-27.331 35.347l-79.164 20.584 19.222 4.793a37.16 37.16 0 0 0 18.341-.092l97.245-25.286c16.096-4.185 27.331-18.716 27.331-35.347V132.891C389.915 63.643 333.779 7.507 264.531 7.507z" style="" fill="#ff6d3a" data-original="#ff6d3a" class=""></path><path d="M122.528 211.167h26.607v-64.958h-26.607c-7.817 0-14.154 6.337-14.154 14.154v36.651c0 7.816 6.337 14.153 14.154 14.153zM389.471 211.167h-26.607v-64.958h26.607c7.817 0 14.154 6.337 14.154 14.154v36.651c.001 7.816-6.336 14.153-14.154 14.153z" style="" fill="#8e8787" data-original="#3d6687" class=""></path><path d="M316.077 324.509a19.926 19.926 0 0 1-16-19.536v-44.917h-88.154v44.917a19.926 19.926 0 0 1-16 19.536l-10.74 2.159v72.13H326.816v-72.13l-10.739-2.159z" style="" fill="#fed9a8" data-original="#fed9a8" class=""></path><path d="m407.848 348.727-88.408-27.565a7.937 7.937 0 0 0-7.824 1.817L256 375.685l-55.616-52.706a7.942 7.942 0 0 0-7.824-1.817l-88.408 27.565c-39.196 11.541-66.108 47.519-66.108 88.379v58.897a8.489 8.489 0 0 0 8.489 8.489h418.933a8.49 8.49 0 0 0 8.49-8.489v-58.897c0-40.859-26.912-76.838-66.108-88.379z" style="" fill="#e61212" data-original="#ff4c4c" class=""></path><path d="m407.848 348.727-88.408-27.565a7.938 7.938 0 0 0-7.824 1.817l-10.396 9.852 50.984 15.896c39.196 11.54 66.108 47.519 66.108 88.379v67.386h47.154a8.49 8.49 0 0 0 8.49-8.489v-58.897c0-40.859-26.912-76.838-66.108-88.379z" style="" fill="#e61212" data-original="#ef2929" class=""></path><path d="M256 297.403c-60.679 0-109.868-49.19-109.868-109.868v-30.877C146.132 95.98 195.322 46.79 256 46.79s109.868 49.19 109.868 109.868v30.877c0 60.679-49.19 109.868-109.868 109.868z" style="" fill="#fed9a8" data-original="#fed9a8" class=""></path><path d="M310.224 61.088v126.447c0 51.066-34.84 93.991-82.046 106.311A110.044 110.044 0 0 0 256 297.403c60.678 0 109.868-49.19 109.868-109.868v-30.876c0-40.958-22.415-76.677-55.644-95.571z" style="" fill="#f4c892" data-original="#f4c892"></path><path d="M200.384 322.979 256 375.685l-34.3 11.685a21.922 21.922 0 0 1-23.556-6.303l-42.425-48.417 36.84-11.486a7.938 7.938 0 0 1 7.825 1.815zM311.616 322.979 256 375.685l31.087 10.59a26.993 26.993 0 0 0 29.006-7.762l40.188-45.864-36.84-11.486a7.94 7.94 0 0 0-7.825 1.816z" style="" fill="#d4145a" data-original="#d4145a" class=""></path><path d="M190.372 460.897h-56.55a5.685 5.685 0 0 1-5.685-5.685v-25.047a5.685 5.685 0 0 1 5.685-5.685h56.55a5.685 5.685 0 0 1 5.685 5.685v25.047a5.685 5.685 0 0 1-5.685 5.685z" style="" fill="#ffffff" data-original="#eda558" class=""></path><path d="M389.915 156.05s-47.402-3.762-63.622-47.364c0 0-114.587 91.74-209.569 47.364v-23.159c0-69.248 56.137-125.385 125.385-125.385h22.422c69.248 0 125.385 56.137 125.385 125.385v23.159h-.001z" style="" fill="#fd9727" data-original="#fd9727" class=""></path><path d="M264.531 7.507h-22.422c-5.632 0-11.175.378-16.611 1.097 58.377 7.728 104.078 55.614 108.43 114.991 19.989 29.593 55.987 32.455 55.987 32.455v-23.159c0-69.248-56.136-125.384-125.384-125.384z" style="" fill="#ff6d3a" data-original="#ff6d3a" class=""></path><path d="M275.587 283.743c-6.939 0-13.075-4.992-14.287-12.062-1.355-7.9 3.951-15.403 11.851-16.757l24.472-4.197c7.902-1.357 15.403 3.951 16.758 11.851 1.355 7.9-3.951 15.403-11.851 16.757l-24.472 4.197c-.83.143-1.656.211-2.471.211z" style="" fill="#d4145a" data-original="#d4145a" class=""></path><path d="M461.612 377.425c-12.975-17.346-30.81-29.751-51.585-35.882l-51.5-16.057-.011-.004-36.839-11.485a15.424 15.424 0 0 0-9.914.247c-2.608-2.323-4.179-5.689-4.179-9.271v-2.304l56.89-14.792c19.4-5.045 32.949-22.567 32.949-42.613v-28.108c8.02-3.177 13.71-11.005 13.71-20.142v-36.651a21.52 21.52 0 0 0-13.71-20.132v-7.339c0-5.655-.359-11.348-1.068-16.924-.523-4.112-4.283-7.013-8.393-6.5a7.507 7.507 0 0 0-6.5 8.394c.629 4.95.948 10.006.948 15.03V147.115a81.998 81.998 0 0 1-14.743-5.077c-.264-.12-.524-.243-.786-.365-10.6-4.979-22.408-13.469-30.068-27.858a67.852 67.852 0 0 1-1.186-2.347 65.878 65.878 0 0 1-.618-1.346c-.188-.417-.379-.829-.56-1.254-.39-.92-.767-1.851-1.12-2.8a7.504 7.504 0 0 0-6.796-4.886c-.111-.004-.222.007-.333.009-.183.002-.366-.001-.548.015a7.498 7.498 0 0 0-3.628 1.321c-.141.098-.286.19-.422.298a31.697 31.697 0 0 1-.353.277l-.225.174-.178.137a112.752 112.752 0 0 1-.58.444l-.184.14-.552.417-.126.095c-13.89 10.419-91.182 65.242-165.356 54.779l-.393-.058a128.836 128.836 0 0 1-7.673-1.353c-.33-.069-.662-.135-.991-.207a120.572 120.572 0 0 1-3.55-.824c-.48-.119-.956-.249-1.434-.374a122.458 122.458 0 0 1-3.92-1.091 124.182 124.182 0 0 1-4.525-1.45 113.71 113.71 0 0 1-3.817-1.374c-1.075-.409-2.148-.83-3.218-1.274-.098-.041-.198-.078-.296-.119v-18.273c0-64.998 52.88-117.878 117.878-117.878h22.422a117.842 117.842 0 0 1 108.308 71.271 7.506 7.506 0 0 0 9.865 3.923 7.506 7.506 0 0 0 3.923-9.864A132.845 132.845 0 0 0 264.531 0H242.11c-73.277 0-132.891 59.614-132.891 132.891v10.412c-5.184 4.05-8.351 10.315-8.351 17.059v36.651c0 6.928 3.274 13.102 8.351 17.07v30.887a43.96 43.96 0 0 0 33.376 42.721l61.822 15.416v1.866c0 3.583-1.571 6.95-4.18 9.273a15.45 15.45 0 0 0-9.911-.249l-36.84 11.486-.012.004-51.498 16.057c-28.552 8.425-51.656 28.952-63.394 56.326a100.054 100.054 0 0 0-2.498 6.434 7.506 7.506 0 0 0 4.614 9.561 7.509 7.509 0 0 0 9.561-4.614 85.515 85.515 0 0 1 2.122-5.466c9.976-23.267 29.619-40.71 53.891-47.857l.114-.034 46.906-14.625 39.206 44.745c5.704 6.509 13.776 10.047 22.092 10.047a29.568 29.568 0 0 0 9.531-1.585L256 383.616l28.666 9.765a34.632 34.632 0 0 0 11.174 1.858c9.749-.001 19.213-4.149 25.899-11.779l36.969-42.191 46.906 14.625.114.034c17.664 5.201 32.832 15.745 43.861 30.49 11.03 14.745 16.86 32.272 16.86 50.687v58.897a.984.984 0 0 1-.982.983h-40.549v-68.624a7.507 7.507 0 0 0-15.014 0v68.624H102.096v-68.624a7.507 7.507 0 0 0-15.014 0v68.624H46.533a.983.983 0 0 1-.982-.983v-54.06a7.507 7.507 0 0 0-15.014 0v54.06c0 8.82 7.176 15.997 15.996 15.997h418.934c8.82 0 15.996-7.176 15.996-15.997v-58.897c0-21.68-6.865-42.317-19.851-59.68zm-79.203-132.162c0 13.21-8.929 24.758-21.713 28.082l-36.051 9.374c.462-.334.906-.689 1.362-1.029.188-.14.374-.283.561-.424a116.34 116.34 0 0 0 3.786-2.979l.485-.4a118.246 118.246 0 0 0 3.896-3.378l.185-.166a118.285 118.285 0 0 0 5.9-5.758c.142-.148.281-.299.421-.447.939-.993 1.864-1.999 2.768-3.023l8.473-1.453a39.099 39.099 0 0 0 29.926-24.441v6.042h.001zm-10.106-41.89c.335-2.472.594-4.968.772-7.487.018-.255.032-.51.049-.764.063-.984.114-1.97.152-2.96.013-.319.027-.637.036-.956.038-1.22.063-2.442.063-3.671v-27.282c8.756 2.632 15.134 3.214 15.929 3.278l.017.001h.009a7.5 7.5 0 0 0 6.247-2.557c.063-.072.117-.15.177-.224.11-.137.221-.274.321-.418.013-.019.03-.037.043-.056V197.012c0 3.557-2.81 6.462-6.327 6.63-.041.001-.082-.004-.124-.002-.118.004-.235.01-.366.019h-17.035c.015-.094.024-.19.037-.286zm-11.911 37.785a117.138 117.138 0 0 0 1.528-3.074 132.42 132.42 0 0 0 2.084-4.6c.224-.525.44-1.054.657-1.583.377-.92.742-1.846 1.097-2.777.163-.43.332-.857.491-1.289a115.75 115.75 0 0 0 1.241-3.586c.148-.449.296-.897.439-1.348.392-1.238.764-2.485 1.116-3.74.046-.163.1-.322.145-.485h.854v6.354a24.114 24.114 0 0 1-12.344 21.086c.191-.33.364-.67.552-1.001.432-.765.857-1.534 1.272-2.309.291-.549.583-1.096.868-1.648zm-240.586-38.089-.02-.007c-2.3-1.047-3.905-3.361-3.905-6.048v-33.1c.22.097.443.189.663.285a126.472 126.472 0 0 0 3.287 1.379c.329.133.656.267.986.397 1.012.4 2.029.789 3.053 1.165l.125.047a135.794 135.794 0 0 0 14.629 4.428v15.921c0 1.229.025 2.451.063 3.671.01.319.024.637.036.956.039.99.089 1.976.152 2.96.016.255.03.51.049.764.178 2.518.437 5.014.772 7.487.013.096.021.192.035.287h-17.204a6.617 6.617 0 0 1-2.721-.592zm26.421 70.054a28.97 28.97 0 0 1-21.995-28.153v-26.296h18.581c.044.16.098.316.142.476a114.92 114.92 0 0 0 1.579 5.163c.406 1.229.827 2.451 1.273 3.661.164.445.337.886.506 1.329a114.848 114.848 0 0 0 3.179 7.522c.231.498.459.997.698 1.492.51 1.059 1.04 2.106 1.581 3.146a111.549 111.549 0 0 0 3.527 6.305 117.424 117.424 0 0 0 2.875 4.547 119.8 119.8 0 0 0 3.097 4.436c.338.461.677.922 1.021 1.378a119.1 119.1 0 0 0 2.428 3.101c.275.34.546.682.825 1.019.558.675 1.123 1.342 1.695 2.004.136.158.276.311.413.468a116.745 116.745 0 0 0 3.251 3.571c.186.196.374.389.562.584a118.21 118.21 0 0 0 7.464 7.11c.144.125.286.252.43.376a117.932 117.932 0 0 0 6.45 5.192l.107.079c.95.709 1.896 1.422 2.868 2.103l-42.557-10.613zm13.673-50.324-.082-.224a99.45 99.45 0 0 1-.779-2.207l-.048-.144a101.416 101.416 0 0 1-2.014-6.732c-.042-.16-.087-.319-.128-.479-.14-.546-.271-1.096-.403-1.646-.093-.388-.186-.775-.274-1.165a100.355 100.355 0 0 1-.568-2.674 105.596 105.596 0 0 1-.684-3.823c-.093-.583-.179-1.168-.262-1.753-.041-.286-.082-.572-.121-.859-.086-.648-.163-1.297-.237-1.947-.027-.239-.057-.478-.082-.718-.073-.689-.136-1.379-.196-2.069-.018-.212-.04-.423-.057-.635-.056-.707-.102-1.415-.143-2.123-.012-.202-.028-.403-.039-.606-.038-.721-.064-1.442-.088-2.163-.006-.192-.017-.382-.022-.574-.024-.908-.037-1.817-.037-2.726V174.39c11.164 1.435 22.86 1.598 34.972.515.395-.035.793-.079 1.189-.116.982-.094 1.966-.194 2.953-.305a187.1 187.1 0 0 0 2.625-.308c.247-.031.495-.065.743-.098 20.379-2.616 41.818-8.666 63.967-18.171 28.992-12.442 51.842-27.496 63.157-35.582 8.96 17.311 22.543 27.729 35.076 33.981.019.791.041 1.586.041 2.353v30.876c0 .909-.013 1.817-.037 2.726-.005.192-.016.382-.022.574a97.467 97.467 0 0 1-.088 2.163c-.011.203-.027.404-.039.606-.042.708-.087 1.416-.143 2.123-.017.212-.038.423-.057.635a95.81 95.81 0 0 1-.196 2.069c-.025.24-.055.478-.082.718-.074.65-.151 1.299-.237 1.947-.038.287-.08.573-.121.859a102.814 102.814 0 0 1-.436 2.802 94.407 94.407 0 0 1-.758 3.982c-.104.49-.209.978-.32 1.465-.088.391-.182.78-.275 1.169-.131.547-.261 1.095-.401 1.639-.043.168-.09.334-.134.502a100.904 100.904 0 0 1-2.002 6.689l-.058.174c-.249.732-.507 1.461-.771 2.185l-.091.25a102.332 102.332 0 0 1-16.039 28.434l-16.86 2.892a21.92 21.92 0 0 0-6.404-7.084c-4.803-3.398-10.642-4.723-16.438-3.724l-24.472 4.197c-11.967 2.052-20.033 13.457-17.981 25.424a21.956 21.956 0 0 0 12.743 16.394c-3.5.363-7.051.552-10.645.552-14.871 0-29.01-3.191-41.772-8.919-.283-.127-.565-.257-.847-.387-24.64-11.332-44.044-32.17-53.476-57.792zm145.897 46.278a6.963 6.963 0 0 1-4.536 2.86l-24.476 4.197a6.981 6.981 0 0 1-8.087-5.721 7.014 7.014 0 0 1 5.721-8.09l24.474-4.197a6.959 6.959 0 0 1 5.229 1.184 6.959 6.959 0 0 1 2.86 4.536 6.96 6.96 0 0 1-1.185 5.231zM219.28 380.264a14.373 14.373 0 0 1-15.49-4.144l-34.82-39.739 25.825-8.052a.433.433 0 0 1 .424.099l46.597 44.16-22.536 7.676zM256 365.342l-43.966-41.665c4.656-4.999 7.396-11.665 7.396-18.705v-5.875c.488.16.983.298 1.473.452.247.078.496.152.743.228 1.486.456 2.98.881 4.482 1.276.27.071.539.144.81.213.837.214 1.675.421 2.516.616.218.051.437.096.656.145a117.076 117.076 0 0 0 5.876 1.169c.706.121 1.412.244 2.121.352 1.067.164 2.14.311 3.216.446.564.07 1.129.132 1.694.194.91.101 1.823.19 2.739.27.385.033.768.073 1.154.103 1.285.099 2.577.17 3.872.227.365.016.731.029 1.096.042 1.368.047 2.741.08 4.121.08s2.752-.033 4.121-.08a120.459 120.459 0 0 0 4.968-.269c.385-.029.769-.07 1.154-.103.916-.08 1.829-.169 2.739-.27.565-.062 1.13-.124 1.694-.194 1.076-.135 2.149-.282 3.216-.446.709-.108 1.415-.231 2.121-.352a116.659 116.659 0 0 0 5.876-1.169c.218-.049.438-.094.656-.145.841-.195 1.68-.402 2.516-.616.271-.069.54-.142.81-.213 1.502-.395 2.995-.821 4.482-1.276.248-.076.496-.15.743-.228.49-.154.984-.291 1.473-.452v5.875c0 7.041 2.74 13.707 7.396 18.705L256 365.342zm54.447 8.225a19.429 19.429 0 0 1-20.94 5.603l-19.324-6.582 46.597-44.16a.43.43 0 0 1 .425-.098l25.824 8.052-32.582 37.185z" fill="#000000" data-original="#000000" class=""></path><path d="M190.372 468.404c7.274 0 13.192-5.917 13.192-13.192v-25.047c0-7.274-5.918-13.193-13.192-13.193h-56.55c-7.274 0-13.192 5.918-13.192 13.193v25.047c0 7.274 5.918 13.192 13.192 13.192h56.55zm-54.729-36.418h52.907v21.404h-52.907v-21.404z" fill="#000000" data-original="#000000" class=""></path></g></svg>