<svg xmlns="http://www.w3.org/2000/svg" version="1.1" xmlns:xlink="http://www.w3.org/1999/xlink" xmlns:svgjs="http://svgjs.com/svgjs" width="512" height="512" x="0" y="0" viewBox="0 0 100 100" style="enable-background:new 0 0 512 512" xml:space="preserve" class=""><g><path fill="#fff9f9" d="M63.333 40c0 12.891-10.443 23.333-23.334 23.333-12.884 0-23.333-10.442-23.333-23.333 0-12.883 10.449-23.333 23.333-23.333 12.891 0 23.334 10.449 23.334 23.333z" data-original="#e0f2f7" class=""></path><path fill="#ffd8d8" d="M20.626 43.959c0-12.884 10.442-23.333 23.333-23.333a23.224 23.224 0 0 1 14.396 4.979C54.083 20.166 47.451 16.667 40 16.667c-12.89 0-23.332 10.449-23.333 23.333 0 7.455 3.497 14.085 8.936 18.357a23.226 23.226 0 0 1-4.977-14.398z" data-original="#b6e2eb" class=""></path><path fill="#4a4747" d="m89.028 81.958-14.14-14.141c-1.297-1.296-3.568-3.255-5.039-4.343l-6.423-4.745a30.274 30.274 0 0 1-4.697 4.696l4.746 6.423c1.087 1.472 3.047 3.743 4.343 5.039l14.14 14.141a3.346 3.346 0 0 0 4.714 0l2.356-2.356a3.344 3.344 0 0 0 0-4.714z" data-original="#bdbcbc" class=""></path><path fill="#000000" d="m66.631 61.098-3.204-2.368a30.274 30.274 0 0 1-4.697 4.696l2.369 3.205a34.344 34.344 0 0 0 5.532-5.533z" data-original="#9d9d9d" class=""></path><path fill="#d20f0f" d="M39.999 10C23.431 10 10 23.431 10 40s13.431 29.999 29.999 29.999c16.569 0 30-13.43 30-29.999s-13.431-30-30-30zm0 53.333c-12.884 0-23.333-10.442-23.333-23.333 0-12.883 10.449-23.333 23.333-23.333 12.891 0 23.334 10.449 23.334 23.333 0 12.891-10.443 23.333-23.334 23.333z" data-original="#88d3e1" class=""></path><g fill="#455a64"><path d="M26.666 36.666h6.667v6.667h-6.667zM26.666 48.333h15v6.666h-15zM61.795 48.333H46.666v6.666H57.87a23.316 23.316 0 0 0 3.925-6.666zM26.666 25h11.667v6.666H26.666zM43.333 25h6.666v6.666h-6.666zM57.867 25h-2.868v6.666h6.795A23.345 23.345 0 0 0 57.867 25zM79.998 25h10v6.666h-10z" fill="#5a4c4c" data-original="#455a64" class=""></path></g><path fill="#263238" d="M79.998 25h4v6.666h-4z" data-original="#263238" class=""></path><path fill="#5a4c4c" d="M83.332 48.333h6.666v6.666h-6.666z" data-original="#455a64" class=""></path><path fill="#263238" d="M83.332 48.333h3.333v6.666h-3.333z" data-original="#263238" class=""></path><path fill="#5a4c4c" d="M38.333 43.333h24.759c.155-1.089.241-2.201.241-3.333s-.086-2.244-.241-3.333H38.333zM74.998 36.666h15v6.667h-15z" data-original="#455a64" class=""></path><path fill="#263238" d="M74.998 36.666h4v6.667h-4z" data-original="#263238" class=""></path><path fill="#5a4c4c" d="M65.976 25a29.857 29.857 0 0 1 2.842 6.666h6.181V25z" data-original="#455a64" class=""></path><path fill="#263238" d="M70.502 25h-4.526a29.857 29.857 0 0 1 2.842 6.666h4.146A33.916 33.916 0 0 0 70.502 25z" data-original="#263238" class=""></path><path fill="#5a4c4c" d="M68.817 48.333a29.9 29.9 0 0 1-2.841 6.666h12.355v-6.666z" data-original="#455a64" class=""></path><path fill="#263238" d="M68.817 48.333a29.9 29.9 0 0 1-2.841 6.666h4.525a33.723 33.723 0 0 0 2.461-6.666zM46.666 48.333h4v6.666h-4zM26.666 48.333h4v6.666h-4zM38.333 36.666h4v6.667h-4zM43.333 25h3.333v6.666h-3.333zM26.666 36.666h3.333v6.667h-3.333zM26.666 25h4v6.666h-4z" data-original="#263238" class=""></path></g></svg>