<svg xmlns="http://www.w3.org/2000/svg" version="1.1" xmlns:xlink="http://www.w3.org/1999/xlink" xmlns:svgjs="http://svgjs.com/svgjs" width="512" height="512" x="0" y="0" viewBox="0 0 64 64" style="enable-background:new 0 0 512 512" xml:space="preserve" class=""><g><circle cx="14" cy="35" r="8" fill="#ffeded" data-original="#80ff86" class=""></circle><path fill="#ee0000" d="M24 3h16v12H24z" data-original="#77a1d3" class=""></path><path fill="#c8c8c8" d="M6 50h16v12H6z" data-original="#e684ae" class=""></path><path fill="#7c7c7c" d="M43 50h16v12H43z" data-original="#fcbf49" class=""></path><circle cx="51" cy="35" r="8" fill="#ffafaf" data-original="#e7604a" class=""></circle><path d="M59 49h-7v-5.06a9 9 0 0 0 0-17.88V21a1 1 0 0 0-1-1H33v-4h7a1 1 0 0 0 1-1V3a1 1 0 0 0-1-1H24a1 1 0 0 0-1 1v12a1 1 0 0 0 1 1h7v4H14a1 1 0 0 0-1 1v5.06a9 9 0 0 0 0 17.88V49H6a1 1 0 0 0-1 1v12a1 1 0 0 0 1 1h16a1 1 0 0 0 1-1V50a1 1 0 0 0-1-1h-7v-5.06a9 9 0 0 0 0-17.88V22h35v4.06a9 9 0 0 0 0 17.88V49h-7a1 1 0 0 0-1 1v12a1 1 0 0 0 1 1h16a1 1 0 0 0 1-1V50a1 1 0 0 0-1-1zM25 4h14v10H25zm-4 47v10H7V51zm0-16a7 7 0 1 1-7-7 7 7 0 0 1 7 7zm23 0a7 7 0 1 1 7 7 7 7 0 0 1-7-7zm14 26H44V51h14z" fill="#422d2d" data-original="#000000" class=""></path><path d="M12 40h-.06a1 1 0 0 1-.77-.45l-2-3 1.66-1.1 1.27 1.9 5.14-6 1.52 1.3-6 7A1 1 0 0 1 12 40zM47.287 32.707l1.414-1.414 6.003 6.003-1.414 1.414z" fill="#422d2d" data-original="#000000" class=""></path><path d="m47.287 37.289 6.003-6.003 1.414 1.414-6.003 6.003z" fill="#422d2d" data-original="#000000" class=""></path></g></svg>