<?xml version="1.0" encoding="UTF-8" standalone="no"?><!DOCTYPE svg PUBLIC "-//W3C//DTD SVG 1.1//EN" "http://www.w3.org/Graphics/SVG/1.1/DTD/svg11.dtd"><svg width="100%" height="100%" viewBox="0 0 2005 403" version="1.1" xmlns="http://www.w3.org/2000/svg" xmlns:xlink="http://www.w3.org/1999/xlink" xml:space="preserve" xmlns:serif="http://www.serif.com/" style="fill-rule:evenodd;clip-rule:evenodd;stroke-linecap:round;stroke-linejoin:round;stroke-miterlimit:10;"><g><g><path d="M-0,66.682l94.792,-0c45.486,-0 84.331,15.538 116.58,46.614c32.226,31.077 48.35,70.009 48.35,116.754c0,47.113 -16.059,86.198 -48.177,117.274c-32.118,31.033 -71.05,46.528 -116.753,46.528l-94.792,-0l-0,-327.17Zm74.566,260.59l11.458,-0c27.257,-0 49.523,-9.158 66.841,-27.518c17.296,-18.402 26.085,-41.493 26.388,-69.27c0,-27.778 -8.68,-50.89 -26.041,-69.358c-17.318,-18.511 -39.714,-27.778 -67.188,-27.778l-11.458,0l-0,193.924Z" style="fill:#35373d;fill-rule:nonzero;"/></g></g><g><g><path d="M272.813,393.852l-0,-203.386l70.225,0l0,29.341l0.782,-0c0.52,-1.086 1.345,-2.431 2.517,-3.994c1.215,-1.562 3.776,-4.296 7.726,-8.246c3.993,-3.993 8.203,-7.574 12.673,-10.764c4.514,-3.168 10.33,-6.011 17.448,-8.507c7.162,-2.539 14.453,-3.819 21.875,-3.819c7.639,-0 15.148,1.085 22.57,3.211c7.4,2.084 12.847,4.211 16.319,6.337l5.556,3.125l-29.341,59.462c-8.745,-7.335 -20.92,-11.024 -36.545,-11.024c-8.463,-0 -15.712,1.866 -21.788,5.555c-6.076,3.646 -10.395,8.138 -12.934,13.455c-2.496,5.274 -4.253,9.766 -5.295,13.455c-1.042,3.711 -1.563,6.641 -1.563,8.767l0,107.032l-70.225,-0Z" style="fill:#35373d;fill-rule:nonzero;"/></g></g><g><g><path d="M457.141,77.098c8.203,-8.203 17.991,-12.326 29.34,-12.326c11.394,-0 21.181,4.123 29.341,12.326c8.203,8.16 12.326,17.947 12.326,29.34c0,11.35 -4.123,21.138 -12.326,29.341c-8.16,8.159 -17.947,12.239 -29.341,12.239c-11.349,0 -21.137,-4.08 -29.34,-12.239c-8.16,-8.203 -12.239,-17.991 -12.239,-29.341c-0,-11.393 4.079,-21.18 12.239,-29.34Zm-6.684,113.368l0,203.386l70.226,-0l-0,-203.386l-70.226,0Z" style="fill:#35373d;fill-rule:nonzero;"/></g></g><g><g><path d="M601.943,190.466l49.566,110.591l49.566,-110.591l83.247,0l-109.028,203.386l-47.569,-0l-109.028,-203.386l83.246,0Z" style="fill:#35373d;fill-rule:nonzero;"/></g></g><g><g><path d="M986.184,301.838l-147.483,-0c0,14.301 4.601,24.891 13.802,31.771c9.245,6.836 19.315,10.243 30.209,10.243c11.328,-0 20.312,-1.498 26.909,-4.514c6.598,-3.06 14.15,-9.071 22.657,-18.056l50.694,25.347c-21.137,35.482 -56.293,53.212 -105.469,53.212c-30.685,0 -56.988,-10.503 -78.906,-31.51c-21.94,-21.05 -32.899,-46.376 -32.899,-75.955c-0,-29.622 10.959,-54.991 32.899,-76.128c21.918,-21.181 48.221,-31.771 78.906,-31.771c32.292,-0 58.529,9.331 78.733,27.951c20.182,18.642 30.295,45.291 30.295,79.948c0,4.753 -0.13,7.899 -0.347,9.462Zm-145.573,-38.802l77.344,-0c-1.563,-10.591 -5.729,-18.707 -12.5,-24.393c-6.728,-5.729 -15.365,-8.593 -25.955,-8.593c-11.632,-0 -20.899,3.081 -27.778,9.201c-6.836,6.076 -10.547,14.019 -11.111,23.785Z" style="fill:#35373d;fill-rule:nonzero;"/></g></g><g><g><path d="M1165.79,66.682l132.032,327.17l-80.122,-0l-24.132,-65.452l-124.566,0l-24.132,65.452l-80.121,-0l132.031,-327.17l69.01,-0Zm2.344,196.354l-36.458,-95.226l-0.782,0l-36.458,95.226l73.698,-0Z" style="fill:#35373d;fill-rule:nonzero;"/></g></g><g><g><path d="M1356.93,190.466l0,96.702c0,20.095 3.038,34.375 9.115,42.882c6.076,8.463 16.363,12.673 30.903,12.673c14.583,0 24.913,-4.21 30.989,-12.673c6.077,-8.507 9.115,-22.787 9.115,-42.882l-0,-96.702l70.139,0l-0,113.802c-0,33.811 -8.811,58.203 -26.389,73.177c-17.535,14.931 -45.486,22.396 -83.854,22.396c-38.325,0 -66.276,-7.465 -83.855,-22.396c-17.599,-14.974 -26.388,-39.366 -26.388,-73.177l-0,-113.802l70.225,0Z" style="fill:#35373d;fill-rule:nonzero;"/></g></g><g><g><path d="M1542.89,190.466l-0,-75.781l70.226,0l-0,75.781l42.795,0l-0,53.472l-42.795,0l-0,64.671c-0,18.75 5.251,28.125 15.798,28.125c2.648,-0 5.425,-0.521 8.333,-1.563c2.952,-1.042 5.209,-2.105 6.771,-3.212l2.344,-1.562l17.448,56.684c-15.061,8.507 -32.205,12.76 -51.476,12.76c-13.259,0 -24.653,-2.322 -34.201,-6.944c-9.505,-4.623 -16.71,-10.851 -21.615,-18.663c-4.861,-7.813 -8.376,-15.994 -10.503,-24.566c-2.084,-8.616 -3.125,-17.817 -3.125,-27.605l-0,-78.125l-29.34,0l-0,-53.472l29.34,0Z" style="fill:#35373d;fill-rule:nonzero;"/></g></g><path d="M1876.28,128.689c10.851,2.8 21.094,7.053 30.751,12.782l9.701,-9.722c3.884,-3.884 8.572,-5.816 14.062,-5.816c5.491,0 10.157,1.932 14.041,5.816l14.063,14.063c3.884,3.884 5.816,8.55 5.816,14.04c-0,5.491 -1.932,10.178 -5.816,14.063l-9.722,9.701c5.707,9.657 9.982,19.9 12.782,30.75l13.693,0c10.981,0 19.879,8.898 19.879,19.879l-0,19.879c-0,10.959 -8.898,19.856 -19.879,19.856l-13.693,0c-2.8,10.873 -7.075,21.116 -12.782,30.751l9.722,9.722c3.884,3.863 5.816,8.551 5.816,14.041c-0,5.491 -1.953,10.178 -5.816,14.063l-14.063,14.041c-3.884,3.884 -8.55,5.837 -14.041,5.837c-5.49,0 -10.178,-1.953 -14.062,-5.837l-9.701,-9.701c-9.657,5.708 -19.9,9.961 -30.751,12.761l0,13.693c0,10.981 -8.897,19.879 -19.878,19.879l-19.879,-0c-10.981,-0 -19.878,-8.898 -19.878,-19.879l-0,-13.693c-10.851,-2.8 -21.094,-7.053 -30.751,-12.761l-9.701,9.701c-3.862,3.884 -8.55,5.837 -14.04,5.837c-5.491,0 -10.178,-1.953 -14.063,-5.837l-14.041,-14.041c-3.884,-3.885 -5.837,-8.572 -5.837,-14.063c-0,-5.49 1.953,-10.178 5.837,-14.041l9.701,-9.722c-5.708,-9.635 -9.961,-19.878 -12.761,-30.751l-13.693,0c-10.981,0 -19.879,-8.897 -19.879,-19.856l0,-19.879c0,-10.981 8.898,-19.879 19.879,-19.879l13.693,0c2.8,-10.85 7.053,-21.093 12.761,-30.75l-9.701,-9.701c-3.884,-3.885 -5.837,-8.572 -5.837,-14.063c-0,-5.49 1.953,-10.156 5.837,-14.04l14.041,-14.063c3.885,-3.884 8.572,-5.816 14.063,-5.816c5.49,0 10.178,1.932 14.04,5.816l9.701,9.722c9.657,-5.729 19.9,-9.982 30.751,-12.782l-0,-13.693c-0,-10.981 8.897,-19.879 19.878,-19.879l19.879,0c10.981,0 19.878,8.898 19.878,19.879l0,13.693Z" style="fill:none;fill-rule:nonzero;stroke:#3d3535;stroke-width:18.55px;"/><path d="M1846.46,184.549c32.921,-0 59.635,26.714 59.635,59.635c0,32.9 -26.714,59.614 -59.635,59.614c-32.9,-0 -59.614,-26.714 -59.614,-59.614c-0,-32.921 26.714,-59.635 59.614,-59.635Z" style="fill:none;fill-rule:nonzero;stroke:#3d3535;stroke-width:18.55px;"/><g><clipPath id="_clip1"><path d="M672.049,187.348l113.494,-217.513l113.28,60.156l-113.516,217.535l-113.258,-60.178Z"/></clipPath><g clip-path="url(#_clip1)"><g><clipPath id="_clip2"><path d="M672.049,187.348l113.494,-217.513l113.28,60.156l-113.516,217.535l-113.258,-60.178Z"/></clipPath><g clip-path="url(#_clip2)"><path d="M859.722,104.926l-24.238,-12.869l-74.352,142.492l-64.801,-34.419l74.351,-142.491l-24.239,-12.891l95.686,-44.748l17.593,104.926Z" style="fill:#35373d;fill-rule:nonzero;"/></g></g></g></g></svg>