<svg xmlns="http://www.w3.org/2000/svg" version="1.1" xmlns:xlink="http://www.w3.org/1999/xlink" xmlns:svgjs="http://svgjs.com/svgjs" width="512" height="512" x="0" y="0" viewBox="0 0 512 512" style="enable-background:new 0 0 512 512" xml:space="preserve" class=""><g><path fill="#685e68" d="M478.609 125.048H33.391C14.2 130.362 0 148.018 0 168.841v264.767c0 24.99 20.446 45.436 45.436 45.436H213.35c5.673 0 10.586 3.664 12.528 8.995 4.47 12.276 16.241 21.042 30.062 21.042 13.822 0 25.592-8.766 30.063-21.042 1.941-5.331 6.855-8.995 12.528-8.995h168.033c24.99 0 45.437-20.447 45.437-45.436V168.841c-.001-20.823-14.201-38.479-33.392-43.793z" data-original="#685e68" class=""></path><path fill="#554e56" d="M34.637 433.608V168.841c0-20.823 14.2-38.479 33.391-43.793H33.391C14.2 130.362 0 148.018 0 168.841v264.767c0 24.99 20.446 45.436 45.436 45.436h34.637c-24.99.001-45.436-20.446-45.436-45.436zM260.515 488.039c-1.942-5.331-6.855-8.995-12.528-8.995H213.35c5.673 0 10.586 3.664 12.528 8.995 4.47 12.276 16.241 21.042 30.062 21.042 6.388 0 12.325-1.89 17.319-5.116-5.811-3.754-10.34-9.324-12.744-15.926z" data-original="#554e56" class=""></path><path fill="#ffffff" d="M458.998 93.19h-13.701v128.625c0 35.928-17.894 61.594-52.207 67.289-4.862.807-9.263-3.03-9.263-7.958v-56.453a8.047 8.047 0 0 0-8.047-8.047H254.907v208.842c0 10.831 8.78 19.611 19.611 19.611h184.48c10.831 0 19.611-8.78 19.611-19.611V112.801c0-10.831-8.78-19.611-19.611-19.611z" data-original="#dfebfa" class=""></path><g fill="#b4dbff"><path d="M289.544 425.487V216.645h-34.637v208.842c0 10.831 8.78 19.611 19.611 19.611h34.637c-10.831 0-19.611-8.78-19.611-19.611z" fill="#c4b9b9" data-original="#b4dbff" class=""></path><path d="M352.289 265.731h-53.898a7.755 7.755 0 1 1 0-15.51h53.898a7.755 7.755 0 1 1 0 15.51zM352.289 298.91h-53.898a7.755 7.755 0 1 1 0-15.51h53.898a7.755 7.755 0 1 1 0 15.51zM437.332 332.09h-138.94a7.755 7.755 0 1 1 0-15.51h138.94a7.755 7.755 0 1 1 0 15.51zM437.332 365.269h-138.94a7.755 7.755 0 1 1 0-15.51h138.94a7.755 7.755 0 1 1 0 15.51zM437.332 398.449h-138.94a7.755 7.755 0 1 1 0-15.51h138.94a7.755 7.755 0 1 1 0 15.51z" fill="#c4b9b9" data-original="#b4dbff" class=""></path></g><path fill="#ffffff" d="M198.519 218.713c-14.258 0-25.818-11.559-25.818-25.818V93.189H53.002c-10.831 0-19.611 8.781-19.611 19.612v312.686c0 10.831 8.78 19.611 19.611 19.611h183.327c10.831 0 19.611-8.78 19.611-19.611V218.713z" data-original="#dfebfa" class=""></path><path fill="#fcb1b1" d="M68.028 425.487V112.801c0-10.831 8.78-19.612 19.611-19.612H53.002c-10.831 0-19.611 8.781-19.611 19.612v312.686c0 10.831 8.78 19.611 19.611 19.611H87.64c-10.832 0-19.612-8.78-19.612-19.611z" data-original="#b1dbfc" class=""></path><path fill="#c4b9b9" d="M214.136 265.731H75.196a7.755 7.755 0 1 1 0-15.51h138.94a7.755 7.755 0 1 1 0 15.51zM214.136 298.91H75.196a7.755 7.755 0 1 1 0-15.51h138.94a7.755 7.755 0 1 1 0 15.51zM214.136 332.09H75.196a7.755 7.755 0 1 1 0-15.51h138.94a7.755 7.755 0 1 1 0 15.51zM214.136 365.269H75.196a7.755 7.755 0 1 1 0-15.51h138.94a7.755 7.755 0 1 1 0 15.51zM214.136 398.449H75.196a7.755 7.755 0 1 1 0-15.51h138.94a7.755 7.755 0 1 1 0 15.51z" data-original="#b4dbff" class=""></path><path fill="#ff646f" d="M113.361 85.335H86.478a7.238 7.238 0 0 0-7.238 7.238V229.53c0 3.516 4.105 5.432 6.8 3.175l11.219-9.399a4.141 4.141 0 0 1 5.319 0l11.219 9.399c2.695 2.258 6.8.342 6.8-3.175V92.572a7.235 7.235 0 0 0-7.236-7.237z" data-original="#ff646f"></path><path fill="#ff4755" d="M99.92 92.572a7.238 7.238 0 0 1 7.238-7.238h-20.68a7.238 7.238 0 0 0-7.238 7.238v136.957c0 3.516 4.105 5.432 6.8 3.175l11.219-9.399a4.129 4.129 0 0 1 2.659-.967V92.572z" data-original="#ff4755" class=""></path><path fill="#ec1b1b" d="M424.649 2.919H195.417c-14.259 0-25.818 11.559-25.818 25.818v167.26c0 14.259 11.559 25.818 25.818 25.818h177.26a8.047 8.047 0 0 1 8.047 8.047v55.419c0 4.928 4.401 8.765 9.263 7.958 34.313-5.694 60.479-35.496 60.479-71.425V28.736c.001-14.258-11.558-25.817-25.817-25.817z" data-original="#60b8ff" class=""></path><path fill="#d40f12" d="M200.618 195.997V28.736c0-14.259 11.559-25.818 25.818-25.818h-31.018c-14.258 0-25.818 11.559-25.818 25.818v167.26c0 14.259 11.559 25.818 25.818 25.818h31.018c-14.259 0-25.818-11.558-25.818-25.817zM411.743 285.281v-55.419a8.047 8.047 0 0 0-8.047-8.047h-31.018a8.047 8.047 0 0 1 8.047 8.047v55.419c0 4.928 4.402 8.765 9.263 7.958a71.91 71.91 0 0 0 21.789-7.351c-.015-.201-.034-.402-.034-.607z" data-original="#23a8fe" class=""></path><path fill="#ffecec" d="M310.033 64.804c9.323 0 16.783-8.079 16.783-17.109s-7.459-16.871-16.783-16.871c-9.531 0-16.99 7.842-16.99 16.871s7.459 17.109 16.99 17.109zM340.714 164.945h-11.375a3.144 3.144 0 0 1-3.144-3.144V97.833c0-6.653-7.252-11.168-16.161-11.168h-25.51c-5.637 0-10.206 4.569-10.206 10.206v2.026c0 5.637 4.569 10.206 10.206 10.206h6.524a3.032 3.032 0 0 1 3.032 3.032V161.8a3.144 3.144 0 0 1-3.144 3.144h-11.582c-5.637 0-10.206 4.569-10.206 10.206v2.026c0 5.637 4.569 10.206 10.206 10.206h61.361c5.637 0 10.206-4.569 10.206-10.206v-2.026c-.001-5.636-4.571-10.205-10.207-10.205z" data-original="#d9edff" class=""></path><path fill="#fcb1b1" d="M313.5 47.695c0-5.32 2.602-10.214 6.679-13.348-2.813-2.185-6.316-3.523-10.146-3.523-9.531 0-16.99 7.842-16.99 16.871s7.459 17.109 16.99 17.109c3.83 0 7.333-1.378 10.146-3.61-4.077-3.203-6.679-8.179-6.679-13.499zM289.603 177.177v-2.026c0-5.637 4.569-10.206 10.206-10.206h11.582a3.144 3.144 0 0 0 3.144-3.144v-49.665a3.032 3.032 0 0 0-3.032-3.032h-6.524c-5.637 0-10.206-4.57-10.206-10.206v-2.026c0-5.637 4.569-10.206 10.206-10.206h-20.457c-5.637 0-10.206 4.569-10.206 10.206v2.026c0 5.637 4.569 10.206 10.206 10.206h6.524a3.032 3.032 0 0 1 3.032 3.032v49.665a3.144 3.144 0 0 1-3.144 3.144h-11.582c-5.637 0-10.206 4.569-10.206 10.206v2.026c0 5.637 4.569 10.206 10.206 10.206h20.457c-5.636 0-10.206-4.569-10.206-10.206z" data-original="#b1dbfc" class=""></path></g></svg>