<?xml version="1.0" encoding="utf-8"?>
<!-- Generator: Adobe Illustrator 27.4.1, SVG Export Plug-In . SVG Version: 6.00 Build 0)  -->
<svg version="1.1" id="Layer_2_00000089550735312390563690000000072788865251308727_"
	 xmlns="http://www.w3.org/2000/svg" xmlns:xlink="http://www.w3.org/1999/xlink" x="0px" y="0px" viewBox="0 0 40 40"
	 style="enable-background:new 0 0 40 40;" xml:space="preserve">
<style type="text/css">
	.st0{fill:#FFFFFF;}
	.st1{fill:none;stroke:#000000;stroke-linejoin:round;stroke-miterlimit:10;}
	.st2{fill:none;stroke:#000000;stroke-linecap:round;stroke-miterlimit:10;}
	.st3{fill:none;stroke:#000000;stroke-width:2;stroke-linecap:round;stroke-miterlimit:10;}
	.st4{fill:none;stroke:#000000;stroke-linecap:round;stroke-linejoin:round;stroke-miterlimit:10;}
</style>
<g id="Layer_1-2">
	<path class="st0" d="M5,0h30c2.8,0,5,2.2,5,5v30c0,2.8-2.2,5-5,5H5c-2.8,0-5-2.2-5-5V5C0,2.2,2.2,0,5,0z"/>
</g>
<path class="st1" d="M12.1,4h15.7c2.2,0,4,1.8,4,4v24c0,2.2-1.8,4-4,4H12.1c-2.2,0-4-1.8-4-4V8C8.1,5.8,9.9,4,12.1,4z"/>
<line class="st2" x1="13.6" y1="25.1" x2="26.4" y2="25.1"/>
<path class="st3" d="M28,20"/>
<path class="st3" d="M15.2,20"/>
<path class="st3" d="M25.9,24.2"/>
<path class="st3" d="M13.1,24.2"/>
<line class="st2" x1="13.6" y1="22.1" x2="26.4" y2="22.1"/>
<line class="st2" x1="13.6" y1="28.1" x2="26.4" y2="28.1"/>
<rect x="13.1" y="9.4" class="st4" width="6.9" height="6.9"/>
</svg>
