<?xml version="1.0" encoding="UTF-8"?>
<svg id="Layer_2" data-name="Layer 2" xmlns="http://www.w3.org/2000/svg" viewBox="0 0 29.4 36.18">
  <defs>
    <style>
      .cls-1 {
        fill: #fff;
      }
    </style>
  </defs>
  <g id="Layer_2-2" data-name="Layer 2">
    <g>
      <path class="cls-1" d="m27.13,2.26h-4.52v-1.14c0-.62-.51-1.12-1.13-1.12s-1.13.5-1.13,1.12v1.14h-4.53v-1.14c0-.62-.51-1.12-1.13-1.12s-1.13.5-1.13,1.12v1.14h-4.52v-1.14c0-.62-.51-1.12-1.13-1.12s-1.13.5-1.13,1.12v1.14H2.26c-1.25,0-2.26,1.01-2.26,2.26v29.39c0,1.25,1.01,2.26,2.26,2.26h24.87c1.25,0,2.26-1.01,2.26-2.26V4.52c0-1.25-1.02-2.26-2.26-2.26Zm0,31.65H2.26V4.52h4.52v1.14c0,.62.51,1.12,1.13,1.12s1.13-.5,1.13-1.12v-1.14h4.52v1.14c0,.62.51,1.12,1.13,1.12s1.13-.5,1.13-1.12v-1.14h4.52v1.14c0,.62.51,1.12,1.13,1.12s1.13-.5,1.13-1.12v-1.14h4.52v29.39h0Z"/>
      <path class="cls-1" d="m21.48,15.83H7.92c-.62,0-1.13.51-1.13,1.13s.51,1.13,1.13,1.13h13.56c.62,0,1.13-.51,1.13-1.13,0-.62-.51-1.13-1.13-1.13Z"/>
      <path class="cls-1" d="m21.48,20.35H7.92c-.62,0-1.13.51-1.13,1.13s.51,1.13,1.13,1.13h13.56c.62,0,1.13-.51,1.13-1.13,0-.62-.51-1.13-1.13-1.13Z"/>
      <path class="cls-1" d="m21.48,24.87H7.92c-.62,0-1.13.51-1.13,1.13s.51,1.13,1.13,1.13h13.56c.62,0,1.13-.51,1.13-1.13,0-.62-.51-1.13-1.13-1.13Z"/>
    </g>
  </g>
</svg>