<?xml version="1.0" encoding="UTF-8"?>
<svg id="Layer_2" data-name="Layer 2" xmlns="http://www.w3.org/2000/svg" viewBox="0 0 40 40">
  <defs>
    <style>
      .cls-1 {
        fill: #fff;
      }

      .cls-2 {
        fill: #30887a;
      }

      .cls-3 {
        fill: #1a534a;
      }
    </style>
  </defs>
  <g id="Layer_1-2" data-name="Layer 1-2">
    <rect class="cls-1" width="40" height="40" rx="5" ry="5"/>
  </g>
  <g id="g3346">
    <g id="Ebene_3" data-name="Ebene 3">
      <path id="path24" class="cls-3" d="m31.15,23.5l-.77.34c-.17.09-.26.28-.17.48l1.02,2.3-22.53,9.92-6.12-13.88,11.59-5.1c1.53-.68,3.23-1.11,5.02-1.22,3.68-.23,7.14.94,9.83,3.03.09.09.23.09.34.03h0c.23-.09.26-.4.09-.54-2.92-2.61-6.86-4.11-11.05-3.83-1.87.11-3.63.57-5.24,1.28L.55,21.86l7.37,16.72,25.36-11.16-1.64-3.71c-.09-.2-.31-.28-.48-.2h0Z"/>
      <path id="path26" class="cls-2" d="m8.85,16.5l.77-.34c.17-.09.26-.28.17-.48l-1.02-2.3L31.29,3.47l6.12,13.88-11.59,5.1c-1.53.68-3.23,1.11-5.02,1.22-3.68.23-7.14-.94-9.83-3.03-.09-.09-.23-.09-.34-.03h0c-.23.09-.26.4-.09.54,2.92,2.61,6.86,4.11,11.05,3.83,1.87-.11,3.63-.57,5.24-1.28l12.61-5.55L32.09,1.43,6.72,12.59l1.64,3.71c.09.2.31.28.48.2h0Z"/>
      <circle id="circle28" class="cls-2" cx="20.18" cy="20.07" r="3.03"/>
    </g>
  </g>
</svg>