<svg xmlns="http://www.w3.org/2000/svg" version="1.1" xmlns:xlink="http://www.w3.org/1999/xlink" xmlns:svgjs="http://svgjs.com/svgjs" width="512" height="512" x="0" y="0" viewBox="0 0 512 512" style="enable-background:new 0 0 512 512" xml:space="preserve" class=""><g><path fill="#ffe3e3" d="M455.099 144H209.401a5.15 5.15 0 0 0-5.151 5.151v69.698a5.15 5.15 0 0 0 5.151 5.151h11.396c8.534 0 15.453-6.918 15.453-15.453v-11.396a5.15 5.15 0 0 1 5.151-5.151h53.698a5.15 5.15 0 0 1 5.151 5.151v229.698a5.15 5.15 0 0 1-5.151 5.151h-11.396c-8.534 0-15.453 6.918-15.453 15.453v11.396a5.15 5.15 0 0 0 5.151 5.151h117.698a5.15 5.15 0 0 0 5.151-5.151v-11.396c0-8.534-6.918-15.453-15.453-15.453h-11.396a5.15 5.15 0 0 1-5.151-5.151V197.151a5.15 5.15 0 0 1 5.151-5.151h53.697a5.15 5.15 0 0 1 5.151 5.151v11.396c0 8.534 6.918 15.453 15.453 15.453h11.396a5.15 5.15 0 0 0 5.151-5.151l.001-69.698a5.15 5.15 0 0 0-5.151-5.151z" data-original="#01c0fa" class=""></path><path fill="#f2f6fa" d="M184.183 312.198c70.287 22.852 149.363-5.63 187.799-72.204 44.229-76.607 17.872-174.598-58.892-218.66-76.642-43.992-173.914-17.79-218.098 58.742-38.419 66.546-23.575 149.228 31.304 198.679 5.93 5.343 6.831 14.313 2.06 20.712l-40.063 53.729 17.259 28.43 33.251.731 26.499-61.559c3.142-7.299 11.323-11.057 18.881-8.6z" data-original="#0055a3" class=""></path><path fill="#fcfcfc" d="M20.718 443.822c-15.265 20.473-9.246 49.68 12.87 62.449 22.116 12.769 50.42 3.378 60.517-20.079l44.697-103.835-50.51-29.162z" data-original="#fd6930" class=""></path><path fill="#faf3f3" d="M300.25 269.231C280.812 281.137 257.952 288 233.488 288c-70.692 0-128-57.308-128-128s57.308-128 128-128c65.274 0 119.136 48.859 127.01 112z" data-original="#dff6fd" class=""></path><path fill="#fec8c8" d="M269.137 37.031c31.057 23.355 51.143 60.515 51.143 102.366 0 70.692-57.308 128-128 128-12.371 0-24.333-1.755-35.649-5.03C178.034 278.461 204.647 288 233.488 288c24.464 0 47.325-6.863 66.763-18.769L360.497 144c-6.381-51.174-42.97-92.965-91.36-106.969z" data-original="#c8effe" class=""></path><path fill="#ffe3e3" d="M204.25 149.151v69.698a5.15 5.15 0 0 0 5.151 5.151h11.396c8.534 0 15.453-6.919 15.453-15.453v-11.396a5.15 5.15 0 0 1 5.151-5.151h53.698a5.15 5.15 0 0 1 5.151 5.151v72.08c36.731-22.498 61.238-63.002 61.238-109.231 0-5.419-.337-10.758-.991-16H209.401a5.15 5.15 0 0 0-5.151 5.151z" data-original="#01c0fa" class=""></path><path fill="#e40e0e" d="M360.497 144h-40.298c-.833 23.571-8.04 45.519-19.949 64.175v61.055c36.731-22.498 61.238-63.002 61.238-109.231 0-5.418-.338-10.757-.991-15.999z" data-original="#08a9f1" class=""></path><path fill="#ffffff" d="m486.946 442.696-8.716 8.716a2.8 2.8 0 0 1-3.961 0l-6.52-6.52V291.107l6.52-6.52a2.8 2.8 0 0 1 3.961 0l8.716 8.716c1.465 1.464 3.385 2.196 5.304 2.196s3.839-.732 5.304-2.196a7.5 7.5 0 0 0 0-10.607l-8.716-8.716c-6.941-6.939-18.234-6.939-25.176 0l-3.412 3.412-3.412-3.412c-6.941-6.939-18.234-6.939-25.176 0l-8.716 8.716a7.5 7.5 0 0 0 10.607 10.607l8.716-8.716a2.8 2.8 0 0 1 3.961 0l6.52 6.52v153.785l-6.52 6.52a2.8 2.8 0 0 1-3.961 0l-8.716-8.716a7.5 7.5 0 0 0-10.607 10.607l8.716 8.716c6.942 6.94 18.234 6.94 25.176 0l3.412-3.412 3.412 3.412c6.942 6.94 18.234 6.94 25.176 0l8.716-8.716a7.5 7.5 0 1 0-10.608-10.607z" data-original="#004281" class=""></path><path fill="#f2f6fa" d="M476.25 423.5h-32c-4.143 0-7.5-3.357-7.5-7.5s3.357-7.5 7.5-7.5h32c4.143 0 7.5 3.357 7.5 7.5s-3.358 7.5-7.5 7.5z" data-original="#0055a3" class=""></path></g></svg>