<svg xmlns="http://www.w3.org/2000/svg" version="1.1" xmlns:xlink="http://www.w3.org/1999/xlink" xmlns:svgjs="http://svgjs.com/svgjs" width="512" height="512" x="0" y="0" viewBox="0 0 512 512" style="enable-background:new 0 0 512 512" xml:space="preserve"><g><linearGradient id="a" x1="256" x2="256" y1="512" y2="0" gradientUnits="userSpaceOnUse"><stop stop-opacity="1" stop-color="#d31012" offset="0"></stop><stop stop-opacity="0.53" stop-color="#ff0002" offset="1"></stop></linearGradient><path fill="url(#a)" d="M256 0C115.043 0 0 115.048 0 256c0 140.957 115.049 256 256 256 140.959 0 256-115.049 256-256C512 115.041 396.951 0 256 0zm0 482C131.383 482 30 380.617 30 256S131.383 30 256 30s226 101.383 226 226-101.383 226-226 226zm75-316c0-41.355-33.645-75-75-75s-75 33.645-75 75 33.645 75 75 75 75-33.645 75-75zm-75 45c-24.813 0-45-20.187-45-45s20.187-45 45-45 45 20.187 45 45-20.187 45-45 45zm0 30c-74.439 0-135 60.561-135 135v14.058c0 4.264 1.814 8.326 4.99 11.171C162.528 433.969 208.7 452 256 452c47.301 0 93.473-18.031 130.01-50.771a14.998 14.998 0 0 0 4.99-11.171V376c0-74.439-60.561-135-135-135zm105 142.193C330.828 408.265 293.789 422 256 422s-74.828-13.735-105-38.807V376c0-57.897 47.103-105 105-105s105 47.103 105 105z" data-original="url(#a)"></path></g></svg>